<svg xmlns="http://www.w3.org/2000/svg" viewBox="0 0 548 632" width="548" height="632">
  <polygon points="274,16 533.81,166 533.81,466 274,616 14.19,466 14.19,166" fill="#2E2B25" stroke="#B3A98E" stroke-width="24" stroke-linejoin="round"></polygon>
  <polygon points="274,16 533.81,166 533.81,466 274,616 14.19,466 14.19,166" fill="none" stroke="#D3C9AE" stroke-width="4" stroke-linejoin="round" transform="translate(274 316) scale(0.905) translate(-274 -316)"></polygon>
  <rect x="152" y="168" width="56" height="56" rx="10" fill="#F2C14E"></rect>
  <rect x="218" y="168" width="56" height="56" rx="10" fill="#F2C14E"></rect>
  <rect x="284" y="168" width="56" height="56" rx="10" fill="#F2C14E" opacity="0.16"></rect>
  <rect x="350" y="168" width="56" height="56" rx="10" fill="#F2C14E" opacity="0.16"></rect>
  <rect x="152" y="234" width="56" height="56" rx="10" fill="#F2C14E"></rect>
  <rect x="218" y="234" width="56" height="56" rx="10" fill="#F2C14E"></rect>
  <rect x="284" y="234" width="56" height="56" rx="10" fill="#F2C14E" opacity="0.16"></rect>
  <rect x="350" y="234" width="56" height="56" rx="10" fill="#F2C14E" opacity="0.16"></rect>
  <rect x="152" y="300" width="56" height="56" rx="10" fill="#F2C14E" opacity="0.16"></rect>
  <rect x="218" y="300" width="56" height="56" rx="10" fill="#F2C14E" opacity="0.16"></rect>
  <rect x="284" y="300" width="56" height="56" rx="10" fill="#F2C14E"></rect>
  <rect x="350" y="300" width="56" height="56" rx="10" fill="#F2C14E"></rect>
  <rect x="152" y="366" width="56" height="56" rx="10" fill="#F2C14E" opacity="0.16"></rect>
  <rect x="218" y="366" width="56" height="56" rx="10" fill="#F2C14E" opacity="0.16"></rect>
  <rect x="284" y="366" width="56" height="56" rx="10" fill="#F2C14E"></rect>
  <rect x="350" y="366" width="56" height="56" rx="10" fill="#F2C14E"></rect>
  <text x="274" y="486" text-anchor="middle" font-family="&#39;JetBrains Mono&#39;,monospace" font-weight="500" font-size="42" letter-spacing="-0.5" fill="#DED4B9">intraclass</text>
</svg>